<svg xmlns="http://www.w3.org/2000/svg" viewBox="0 0 800 500" fill="none">
  <rect width="800" height="500" fill="#171717"/>
  <g transform="translate(400, 200)">
    <!-- Waveform visualization -->
    <g stroke="#c9a66b" stroke-width="2" opacity="0.8">
      <line x1="-180" y1="0" x2="-180" y2="-30"/>
      <line x1="-160" y1="0" x2="-160" y2="-60"/>
      <line x1="-140" y1="0" x2="-140" y2="-40"/>
      <line x1="-120" y1="0" x2="-120" y2="-80"/>
      <line x1="-100" y1="0" x2="-100" y2="-50"/>
      <line x1="-80" y1="0" x2="-80" y2="-90"/>
      <line x1="-60" y1="0" x2="-60" y2="-70"/>
      <line x1="-40" y1="0" x2="-40" y2="-100"/>
      <line x1="-20" y1="0" x2="-20" y2="-60"/>
      <line x1="0" y1="0" x2="0" y2="-80"/>
      <line x1="20" y1="0" x2="20" y2="-50"/>
      <line x1="40" y1="0" x2="40" y2="-90"/>
      <line x1="60" y1="0" x2="60" y2="-70"/>
      <line x1="80" y1="0" x2="80" y2="-85"/>
      <line x1="100" y1="0" x2="100" y2="-45"/>
      <line x1="120" y1="0" x2="120" y2="-75"/>
      <line x1="140" y1="0" x2="140" y2="-55"/>
      <line x1="160" y1="0" x2="160" y2="-40"/>
      <line x1="180" y1="0" x2="180" y2="-25"/>
    </g>
    <!-- Mirror -->
    <g stroke="#c9a66b" stroke-width="2" opacity="0.4">
      <line x1="-180" y1="0" x2="-180" y2="30"/>
      <line x1="-160" y1="0" x2="-160" y2="60"/>
      <line x1="-140" y1="0" x2="-140" y2="40"/>
      <line x1="-120" y1="0" x2="-120" y2="80"/>
      <line x1="-100" y1="0" x2="-100" y2="50"/>
      <line x1="-80" y1="0" x2="-80" y2="90"/>
      <line x1="-60" y1="0" x2="-60" y2="70"/>
      <line x1="-40" y1="0" x2="-40" y2="100"/>
      <line x1="-20" y1="0" x2="-20" y2="60"/>
      <line x1="0" y1="0" x2="0" y2="80"/>
      <line x1="20" y1="0" x2="20" y2="50"/>
      <line x1="40" y1="0" x2="40" y2="90"/>
      <line x1="60" y1="0" x2="60" y2="70"/>
      <line x1="80" y1="0" x2="80" y2="85"/>
      <line x1="100" y1="0" x2="100" y2="45"/>
      <line x1="120" y1="0" x2="120" y2="75"/>
      <line x1="140" y1="0" x2="140" y2="55"/>
      <line x1="160" y1="0" x2="160" y2="40"/>
      <line x1="180" y1="0" x2="180" y2="25"/>
    </g>
  </g>
  <text x="400" y="380" font-family="sans-serif" font-size="24" fill="#666" text-anchor="middle">Placeholder Image 4</text>
</svg>
