<svg xmlns="http://www.w3.org/2000/svg" viewBox="0 0 800 500">
  <rect width="800" height="500" fill="#1a1715"/>
  <rect x="50" y="50" width="700" height="400" rx="8" fill="none" stroke="#c9a66b" stroke-width="1" opacity="0.3"/>
  <!-- Microphone -->
  <rect x="375" y="120" width="50" height="80" rx="25" fill="none" stroke="#c9a66b" stroke-width="2" opacity="0.6"/>
  <path d="M350 180 Q350 230 400 230 Q450 230 450 180" fill="none" stroke="#c9a66b" stroke-width="2" opacity="0.5"/>
  <line x1="400" y1="230" x2="400" y2="260" stroke="#c9a66b" stroke-width="2" opacity="0.5"/>
  <line x1="375" y1="260" x2="425" y2="260" stroke="#c9a66b" stroke-width="2" opacity="0.5"/>
  <!-- Sound waves -->
  <path d="M320 160 Q310 180 320 200" fill="none" stroke="#c9a66b" stroke-width="1.5" opacity="0.3"/>
  <path d="M300 145 Q285 180 300 215" fill="none" stroke="#c9a66b" stroke-width="1.5" opacity="0.2"/>
  <path d="M480 160 Q490 180 480 200" fill="none" stroke="#c9a66b" stroke-width="1.5" opacity="0.3"/>
  <path d="M500 145 Q515 180 500 215" fill="none" stroke="#c9a66b" stroke-width="1.5" opacity="0.2"/>
  <!-- Waveform bar -->
  <g transform="translate(250, 290)" opacity="0.4">
    <rect x="0" y="15" width="6" height="20" fill="#c9a66b" rx="2"/>
    <rect x="15" y="8" width="6" height="34" fill="#c9a66b" rx="2"/>
    <rect x="30" y="0" width="6" height="50" fill="#c9a66b" rx="2"/>
    <rect x="45" y="10" width="6" height="30" fill="#c9a66b" rx="2"/>
    <rect x="60" y="5" width="6" height="40" fill="#c9a66b" rx="2"/>
    <rect x="75" y="12" width="6" height="26" fill="#c9a66b" rx="2"/>
    <rect x="90" y="3" width="6" height="44" fill="#c9a66b" rx="2"/>
    <rect x="105" y="8" width="6" height="34" fill="#c9a66b" rx="2"/>
    <rect x="120" y="15" width="6" height="20" fill="#c9a66b" rx="2"/>
    <rect x="135" y="5" width="6" height="40" fill="#c9a66b" rx="2"/>
    <rect x="150" y="10" width="6" height="30" fill="#c9a66b" rx="2"/>
    <rect x="165" y="0" width="6" height="50" fill="#c9a66b" rx="2"/>
    <rect x="180" y="8" width="6" height="34" fill="#c9a66b" rx="2"/>
    <rect x="195" y="12" width="6" height="26" fill="#c9a66b" rx="2"/>
    <rect x="210" y="3" width="6" height="44" fill="#c9a66b" rx="2"/>
    <rect x="225" y="10" width="6" height="30" fill="#c9a66b" rx="2"/>
    <rect x="240" y="15" width="6" height="20" fill="#c9a66b" rx="2"/>
    <rect x="255" y="5" width="6" height="40" fill="#c9a66b" rx="2"/>
    <rect x="270" y="8" width="6" height="34" fill="#c9a66b" rx="2"/>
    <rect x="285" y="12" width="6" height="26" fill="#c9a66b" rx="2"/>
  </g>
  <text x="400" y="390" text-anchor="middle" font-family="sans-serif" font-size="18" fill="#c9a66b" opacity="0.5">Live Sound &amp; Recording</text>
  <text x="400" y="420" text-anchor="middle" font-family="sans-serif" font-size="13" fill="#c9a66b" opacity="0.3">Placeholder</text>
</svg>
